<?xml version="1.0" encoding="UTF-8"?>
<svg id="Layer_1" xmlns="http://www.w3.org/2000/svg" version="1.1" viewBox="0 0 1000 1000">
  <!-- Generator: Adobe Illustrator 29.4.0, SVG Export Plug-In . SVG Version: 2.1.0 Build 152)  -->
  <polygon points="999.934 289.74 994.844 289.74 499.968 4.011 5.092 289.74 -.032 289.74 -.032 703.327 .002 710.282 5.092 710.282 77.372 752.009 154.742 707.341 154.742 382.007 422.564 227.403 422.564 528.617 366.058 495.997 366.058 406.626 288.702 451.322 211.285 406.633 211.285 829.365 288.655 874.027 366.058 829.324 366.058 674.694 422.564 707.341 422.564 951.346 499.968 996.01 577.372 951.346 577.372 796.708 711.285 874.027 788.655 829.365 788.655 495.993 714.762 453.339 713.112 452.408 709.383 452.408 633.878 495.993 633.878 650.6 577.372 617.98 577.372 227.403 845.195 382.007 845.195 707.341 922.564 752.009 994.844 710.282 999.968 710.282 999.968 296.694 999.934 289.74"/>
  <polygon points="221.651 423.365 221.651 472.337 264.062 447.851 221.651 423.365" fill="#fff"/>
  <polygon points="357.158 423.365 357.158 472.337 314.748 447.851 357.158 423.365" fill="#fff"/>
  <rect x="497.495" y="661.24" width="5" height="334.759" fill="#fff"/>
  <rect x="708.801" y="452.394" width="5" height="113.127" fill="#fff"/>
  <rect x="920.064" y="551.896" width="5" height="200.113" fill="#fff"/>
  <rect x="910.731" y="496.928" width="5" height="40.152" fill="#fff"/>
  <rect x="929.402" y="491.737" width="5" height="40.152" fill="#fff"/>
  <rect x="387.776" y="156.429" width="5" height="40.152" transform="translate(347.995 -249.737) rotate(60)" fill="#fff"/>
  <rect x="368.76" y="136.474" width="5" height="40.152" transform="translate(321.206 -243.246) rotate(60)" fill="#fff"/>
  <rect x="301.165" y="151.872" width="5" height="121.73" transform="translate(336.068 -156.613) rotate(60)" fill="#fff"/>
  <rect x="920.064" y="338.577" width="5" height="138.351" fill="#fff"/>
  <rect x="867.98" y="248.388" width="5" height="123.13" transform="translate(166.813 908.834) rotate(-60)" fill="#fff"/>
  <rect x="915.399" y="534.489" width="5" height="20" transform="translate(-149.269 531.897) rotate(-30)" fill="#fff"/>
  <rect x="924.742" y="474.346" width="5" height="20" transform="translate(-117.946 528.511) rotate(-30)" fill="#fff"/>
  <rect x="686.975" y="543.694" width="5" height="38.652" transform="translate(126.454 1252.496) rotate(-90)" fill="#fff"/>
  <rect x="463.54" y="856.384" width="2" height="120.011" fill="#fff"/>
  <rect x="534.511" y="896.973" width="2" height="80.053" fill="#fff"/>
  <rect x="886.064" y="671.149" width="2" height="60.878" fill="#fff"/>
  <rect x="957.064" y="626.835" width="2" height="105.282" fill="#fff"/>
  <rect x="463.521" y="23.886" width="2" height="30.766" fill="#fff"/>
  <rect x="534.479" y="23.886" width="2" height="50.798" fill="#fff"/>
  <rect x="252.251" y="794.947" width="2" height="60.106" fill="#fff"/>
  <rect x="111.817" y="686.636" width="2" height="45.489" fill="#fff"/>
  <rect x="286.188" y="716.622" width="5" height="157.592" fill="#fff"/>
  <rect x="74.867" y="631.221" width="5" height="120.788" fill="#fff"/>
  <rect x="114.804" y="596.284" width="5" height="74.874" transform="translate(751.025 516.416) rotate(90)" fill="#fff"/>
  <rect x="248.676" y="674.221" width="5" height="79.913" transform="translate(-463.001 965.354) rotate(-90)" fill="#fff"/>
  <rect x="457.433" y="591.882" width="5" height="95.375" transform="translate(1243.784 561.041) rotate(120)" fill="#fff"/>
  <rect x="450.712" y="67.587" width="5" height="110.949" transform="translate(333.18 -330.962) rotate(60)" fill="#fff"/>
  <rect x="497.5" y="3.722" width="5" height="93.77" fill="#fff"/>
  <rect x="298.17" y="532.279" width="5" height="30.336" transform="translate(925.108 560.782) rotate(120)" fill="#fff"/>
  <rect x="274.153" y="532.228" width="5" height="30.602" transform="translate(-59.194 1060.883) rotate(-120)" fill="#fff"/>
  <rect x="286.224" y="527.055" width="5" height="14.883" fill="#fff"/>
  <circle cx="419.171" cy="615.953" r="5" fill="#fff"/>
  <circle cx="314.078" cy="555.188" r="5" fill="#fff"/>
  <circle cx="288.724" cy="527.055" r="5" fill="#fff"/>
  <circle cx="263.389" cy="555.188" r="5" fill="#fff"/>
  <circle cx="288.688" cy="762.277" r="5" fill="#fff"/>
  <circle cx="670.149" cy="563.021" r="5" fill="#fff"/>
  <rect x="674.812" y="471.064" width="2" height="39.872" fill="#fff"/>
  <circle cx="913.285" cy="496.928" r="5" fill="#fff"/>
  <circle cx="931.902" cy="531.888" r="5" fill="#fff"/>
  <circle cx="372.876" cy="186.55" r="5" fill="#fff"/>
  <circle cx="250.975" cy="243.157" r="5" fill="#fff"/>
  <circle cx="388.646" cy="146.514" r="5" fill="#fff"/>
  <circle cx="817.163" cy="279.171" r="5" fill="#fff"/>
  <rect x="403.918" y="148.634" width="5" height="20" fill="#fff"/>
  <rect x="352.621" y="164.443" width="5" height="20" fill="#fff"/>
</svg>