<?xml version="1.0" encoding="UTF-8"?>
<svg id="Layer_1" data-name="Layer 1" xmlns="http://www.w3.org/2000/svg" viewBox="0 0 755.23 241.25">
  <defs>
    <style>
      .cls-1, .cls-2 {
        fill: #fff;
      }

      .cls-3 {
        fill: #27272a;
      }

      .cls-2 {
        font-family: YurukaStd-UB-90ms-RKSJ-H, 'FOT-Yuruka Std';
        font-size: 19.93px;
      }

      .cls-4, .cls-5 {
        stroke: #0b0b0c;
        stroke-miterlimit: 10;
      }

      .cls-4, .cls-6 {
        fill: #0b0b0c;
      }

      .cls-5 {
        fill: none;
      }

      .cls-7 {
        fill: #231f20;
      }
    </style>
  </defs>
  <path class="cls-6" d="M52.13,190.77h-.41c-2.67,0-4.72-2.26-4.72-4.72l-6.16-117.2-33.66,1.85c-2.87,0-5.34-2.05-5.34-4.72L0,28.01v-.41c0-2.46,2.05-4.52,4.72-4.72l38.38-2.05,81.28-4.31c2.67,0,5.34,2.05,5.34,4.93l1.85,37.56c0,2.67-2.05,5.13-4.93,5.34l-32.43,1.64,6.16,117.4v.21c0,2.67-2.26,4.72-4.72,4.93l-43.51,2.26Z"/>
  <path class="cls-3" d="M176.51,75.83c-16.83,0-30.38-13.55-30.38-30.17s13.55-30.38,30.38-30.38,30.17,13.55,30.17,30.38-13.55,30.17-30.17,30.17Zm-12.93,114.12h-.41c-2.26,0-3.9-1.85-4.1-4.1l-5.13-99.96c0-2.46,1.64-4.31,4.11-4.52l41.05-2.05h.41c2.05,0,3.9,1.85,3.9,3.9l5.13,100.16v.41c0,2.05-1.85,3.9-3.9,4.1l-41.05,2.05Z"/>
  <path class="cls-6" d="M294.9,198.72c-46.56-1.57-68.87-34.16-67.82-65.34,.99-29.33,22.75-59.4,69.52-57.82,50.87,1.72,51.6,47.13,51.37,53.9-.32,9.44-4.48,17.1-16.72,20.79-9.75,2.96-25.01,4.7-35.69,4.75-3.28-.11-4.26-1.58-5-4.07-2.23-6.85-5.68-20.32-5.65-21.14,.08-2.26,1.75-3.23,4.44-3.75,10.75-2.1,12.2-2.46,12.3-5.33,.06-1.85-3.61-8.54-12.23-8.83-9.85-.33-18.34,8.01-18.77,20.72-.49,14.56,9.62,31.34,35.26,32.2,1.44,.05,3.08,.1,4.52-.05h.41c2.87,.11,6.3,2.07,6.18,5.56-.07,2.05-5.87,15.82-9.19,22.69-1.75,3.23-4.52,6.01-10.46,5.81l-2.46-.08Z"/>
  <path class="cls-3" d="M379.28,161.85c-4.52,0-6.57-.82-7.8-4.31l-9.03-23.81c-.21-.62-.41-1.23-.41-1.64,0-3.08,4.1-3.49,6.57-3.49,12.11-.21,17.86-5.95,17.86-10.88,0-2.67-2.67-5.95-5.54-9.65l-5.54-6.16c-9.03-10.26-12.73-19.09-12.73-26.89,0-23.19,33.45-35.51,60.34-35.51,8,0,10.06,.82,11.49,4.52l9.24,23.81c.41,.82,.41,1.44,.41,2.05,0,2.26-2.26,3.08-4.93,3.08h-.82c-12.32,0-17.04,4.1-17.04,8.21,0,3.49,3.08,7.39,10.88,16.01,9.44,10.26,13.55,19.5,13.55,27.3,0,24.22-36.74,37.35-64.24,37.35h-2.26Z"/>
  <path class="cls-6" d="M534.24,206.93c-46.59,0-69.99-31.81-69.99-63.01,0-29.35,20.73-60.14,67.53-60.14,50.9,0,53.16,45.36,53.16,52.13,0,9.44-3.9,17.24-16.01,21.35-9.65,3.28-24.83,5.54-35.51,5.95-3.28,0-4.31-1.44-5.13-3.9-2.46-6.77-6.36-20.11-6.36-20.94,0-2.26,1.64-3.28,4.31-3.9,10.67-2.46,12.11-2.87,12.11-5.75,0-1.85-3.9-8.42-12.52-8.42-9.85,0-18.06,8.62-18.06,21.35,0,14.57,10.67,30.99,36.33,30.99,1.44,0,3.08,0,4.52-.21h.41c2.87,0,6.36,1.85,6.36,5.34,0,2.05-5.34,16.01-8.42,22.99-1.64,3.28-4.31,6.16-10.26,6.16h-2.46Z"/>
  <path class="cls-3" d="M728.65,170.33c-1.79,11.35-.6,20.89,6.5,29.91,1.06,1.21,2.76,3.55,2.41,5.78-.19,1.22-.99,2.34-2.57,3.13-.06,.41-22.41,11.63-22.41,11.63-2.28,1.3-4.41,1.59-6.23,1.3-3.65-.58-34.39-16.44-28.7-52.53l1.09-6.89c3.36-21.29-5.57-31.84-20.24-34.99l-15.47,72.99c-.32,2.03-2.43,3.56-4.46,3.24l-.41-.06-40.23-8.43c-2.4-.59-3.73-2.67-3.35-5.1l22.11-104.56c.56-2.2,2.67-3.73,4.7-3.41l.41,.06,22.52,4.8c8.16-.37,15.79,0,23.09,1.15,41.16,6.49,68.41,36.56,62.3,75.28l-1.06,6.69Z"/>
  <g>
    <g>
      <polygon class="cls-1" points="200.14 55.61 200.14 55.61 197.65 57.24 194.99 55.91 192.33 54.57 189.68 53.23 189.85 56.2 190.02 59.18 190.19 62.15 187.71 63.78 185.04 62.45 182.39 61.11 179.73 59.77 179.9 62.75 180.07 65.72 180.24 68.69 177.76 70.32 175.1 68.99 174.93 66.01 174.75 63.04 174.58 60.07 174.41 57.1 171.75 55.77 169.09 54.43 169.26 57.4 169.43 60.37 169.61 63.34 167.12 64.98 164.46 63.64 164.29 60.67 164.11 57.7 163.94 54.73 163.77 51.76 163.6 48.78 163.42 45.81 163.25 42.84 163.08 39.87 165.74 41.21 168.23 39.57 168.4 42.54 168.57 45.51 168.74 48.48 171.4 49.82 174.06 51.16 173.89 48.19 173.72 45.21 173.54 42.24 173.37 39.27 173.03 33.33 172.85 30.36 170.37 31.99 167.88 33.63 165.39 35.26 162.91 36.9 160.42 38.53 157.93 40.17 158.11 43.14 158.28 46.11 155.79 47.75 153.13 46.41 152.96 43.44 152.79 40.47 152.61 37.5 155.1 35.86 157.59 34.23 160.07 32.59 162.56 30.96 165.05 29.32 167.54 27.69 170.02 26.05 172.51 24.42 175 22.78 177.66 24.12 180.32 25.45 182.98 26.79 185.63 28.12 188.3 29.46 190.95 30.8 193.61 32.14 196.27 33.47 198.93 34.81 199.1 37.78 199.28 40.75 199.45 43.72 196.96 45.36 194.3 44.02 194.13 41.05 193.96 38.08 191.3 36.74 188.64 35.41 185.98 34.07 183.32 32.73 180.66 31.4 178 30.06 178.17 33.03 178.35 36 178.52 38.97 178.69 41.94 178.86 44.92 179.04 47.89 179.21 50.86 179.38 53.83 182.04 55.17 184.7 56.5 184.53 53.53 184.36 50.56 184.18 47.59 186.67 45.96 189.33 47.29 191.99 48.63 194.65 49.96 197.31 51.3 199.97 52.64 200.14 55.61"/>
      <polygon class="cls-7" points="163.35 40.29 163.46 42.34 165.18 41.22 163.35 40.29"/>
      <polygon class="cls-7" points="167.99 40.04 166.27 41.16 168.1 42.09 167.99 40.04"/>
    </g>
    <rect class="cls-7" x="177.27" y="55.6" width=".24" height="14.74" transform="translate(-3.14 9.68) rotate(-3.1)"/>
    <rect class="cls-7" x="187.51" y="60.97" width=".24" height="2.84" transform="translate(-3.1 10.23) rotate(-3.1)"/>
    <rect class="cls-7" x="186.98" y="53.32" width=".24" height="3.04" transform="translate(-2.69 10.19) rotate(-3.1)"/>
    <rect class="cls-7" x="186.7" y="62.4" width=".12" height=".96" transform="translate(-3.13 10.19) rotate(-3.1)"/>
    <rect class="cls-7" x="198.34" y="54.85" width=".12" height="1.9" transform="translate(58.87 207.49) rotate(-63.1)"/>
    <rect class="cls-7" x="185.53" y="46.65" width=".12" height="1.24" transform="translate(59.46 191.39) rotate(-63.1)"/>
    <polygon class="cls-7" points="187.67 60.96 187.57 61.18 185.88 60.32 181.43 58.06 181.54 57.85 187.67 60.96"/>
    <polygon class="cls-7" points="200.19 55.5 200.09 55.71 198.67 54.99 194.95 53.1 195.05 52.89 200.19 55.5"/>
    <polygon class="cls-7" points="186.56 48.67 186.46 48.88 185.82 48.56 184.13 47.7 184.23 47.49 186.56 48.67"/>
    <polygon class="cls-7" points="192.03 52.24 191.92 52.46 190.61 51.79 187.18 50.05 187.29 49.84 192.03 52.24"/>
    <polygon class="cls-7" points="194.33 51.72 194.22 51.94 193.15 51.39 190.34 49.97 190.45 49.75 194.33 51.72"/>
    <polygon class="cls-7" points="195.15 52.98 194.95 53.11 194.72 52.76 194.13 51.85 194.33 51.72 195.15 52.98"/>
    <polygon class="cls-7" points="187.38 49.92 187.18 50.05 186.96 49.71 186.36 48.8 186.56 48.67 187.38 49.92"/>
    <rect class="cls-7" x="178.51" y="66.92" width=".12" height="2.86" transform="translate(-3.43 9.75) rotate(-3.1)"/>
    <rect class="cls-7" x="166.3" y="51.55" width=".12" height="2.86" transform="translate(-2.62 9.07) rotate(-3.1)"/>
    <rect class="cls-7" x="169.04" y="49.76" width=".12" height="3.81" transform="translate(46.51 179.09) rotate(-63.1)"/>
    <rect class="cls-7" x="174.38" y="51.55" width=".24" height="5.72" transform="translate(47.02 185.41) rotate(-63.1)"/>
    <rect class="cls-7" x="166.83" y="58.31" width=".24" height="6.67" transform="translate(-3.09 9.12) rotate(-3.1)"/>
    <rect class="cls-7" x="165.97" y="45.78" width=".24" height="4.5" transform="translate(-2.35 9.05) rotate(-3.1)"/>
    <rect class="cls-7" x="176.16" y="43.9" width=".24" height="7.16" transform="translate(-2.31 9.6) rotate(-3.1)"/>
    <rect class="cls-7" x="164.16" y="58.38" width="2.73" height=".24" transform="translate(-2.92 9.03) rotate(-3.1)"/>
    <rect class="cls-7" x="163.77" y="55.48" width="4.15" height=".24" transform="translate(-2.76 9.05) rotate(-3.1)"/>
    <rect class="cls-7" x="165.87" y="45.72" width="2.73" height=".24" transform="translate(-2.23 9.11) rotate(-3.1)"/>
    <rect class="cls-7" x="173.61" y="43.97" width="2.6" height=".24" transform="translate(-2.13 9.52) rotate(-3.1)"/>
    <rect class="cls-7" x="173.7" y="45.01" width="1.05" height=".12" transform="translate(-1.75 7.39) rotate(-2.42)"/>
    <rect class="cls-7" x="167.46" y="46.69" width="1.19" height=".12" transform="translate(-2.28 9.15) rotate(-3.1)"/>
    <rect class="cls-7" x="155.84" y="38.52" width="1.9" height=".12" transform="translate(4.37 91.88) rotate(-33.1)"/>
    <rect class="cls-7" x="157.73" y="35.44" width="1.9" height=".12" transform="translate(6.37 92.41) rotate(-33.1)"/>
    <rect class="cls-7" x="169.38" y="29.98" width="1.9" height=".12" transform="translate(11.24 97.89) rotate(-33.1)"/>
    <rect class="cls-7" x="191.73" y="34.39" width=".12" height="1.9" transform="translate(73.5 190.39) rotate(-63.1)"/>
    <rect class="cls-7" x="194.38" y="52.84" width=".12" height="1.9" transform="translate(58.49 202.86) rotate(-63.1)"/>
    <rect class="cls-7" x="181.6" y="26.99" width=".12" height="1.9" transform="translate(74.55 177.3) rotate(-63.1)"/>
    <rect class="cls-7" x="197.77" y="42.91" width=".12" height="1.9" transform="translate(-2.08 10.76) rotate(-3.1)"/>
    <rect class="cls-7" x="195.9" y="43.95" width=".12" height=".95" transform="translate(-2.12 10.66) rotate(-3.1)"/>
    <rect class="cls-7" x="156.62" y="46.23" width=".12" height=".95" transform="translate(-2.3 8.54) rotate(-3.1)"/>
    <rect class="cls-7" x="154.69" y="45.38" width=".12" height="1.91" transform="translate(-2.28 8.43) rotate(-3.1)"/>
    <rect class="cls-7" x="176.65" y="64.2" width=".12" height="5.72" transform="translate(-3.37 9.65) rotate(-3.1)"/>
    <circle class="cls-7" cx="171.95" cy="53.12" r=".24"/>
    <circle class="cls-7" cx="167.91" cy="55.49" r=".24"/>
    <circle class="cls-7" cx="176.47" cy="51.05" r=".24"/>
    <rect class="cls-7" x="175.53" y="32.37" width=".24" height="7.16" transform="translate(-1.69 9.55) rotate(-3.1)"/>
    <rect class="cls-7" x="174.96" y="22.78" width=".24" height="3.16" transform="translate(-1.06 9.5) rotate(-3.1)"/>
    <rect class="cls-7" x="178.52" y="23.67" width=".24" height="7.91" transform="translate(73.17 174.44) rotate(-63.1)"/>
    <rect class="cls-7" x="167.94" y="27.87" width="7.91" height=".24" transform="translate(12.61 98.41) rotate(-33.1)"/>
    <rect class="cls-7" x="162.4" y="31.4" width="4.77" height=".24" transform="translate(9.53 95.1) rotate(-33.1)"/>
    <rect class="cls-7" x="161.5" y="33.55" width="6.53" height=".24" transform="translate(8.35 95.44) rotate(-33.1)"/>
    <rect class="cls-7" x="154.76" y="37.02" width="5.96" height=".24" transform="translate(5.31 92.17) rotate(-33.1)"/>
    <rect class="cls-7" x="155.42" y="38.66" width=".24" height="9.11" transform="translate(-2.11 8.47) rotate(-3.1)"/>
    <rect class="cls-7" x="185.12" y="29.63" width=".24" height="4.77" transform="translate(72.87 182.73) rotate(-63.1)"/>
    <rect class="cls-7" x="166.72" y="30.06" width="1.92" height=".24" transform="translate(-1.39 9.11) rotate(-3.1)"/>
    <rect class="cls-7" x="160.17" y="35.36" width="1.92" height=".24" transform="translate(-1.68 8.76) rotate(-3.1)"/>
    <rect class="cls-7" x="182.52" y="29.22" width=".24" height="1.92" transform="translate(13.16 104.63) rotate(-33.1)"/>
    <rect class="cls-7" x="190.63" y="32.15" width=".24" height="1.92" transform="translate(12.87 109.54) rotate(-33.1)"/>
    <rect class="cls-7" x="175.34" y="32.3" width="2.8" height=".24" transform="translate(-1.49 9.6) rotate(-3.1)"/>
    <rect class="cls-7" x="176.91" y="33.27" width="1.28" height=".12" transform="translate(-1.54 9.65) rotate(-3.1)"/>
    <rect class="cls-7" x="174.04" y="23.36" width=".12" height="1.28" transform="translate(-1.04 9.45) rotate(-3.1)"/>
    <rect class="cls-7" x="175.94" y="23.23" width=".12" height="1.28" transform="translate(-1.03 9.55) rotate(-3.1)"/>
    <circle class="cls-7" cx="175.85" cy="39.52" r=".24"/>
    <circle class="cls-7" cx="187.43" cy="33.13" r=".24"/>
    <circle class="cls-7" cx="196.86" cy="43.55" r=".24"/>
    <circle class="cls-7" cx="162.78" cy="32.82" r=".24"/>
    <circle class="cls-7" cx="155.51" cy="42.73" r=".24"/>
    <circle class="cls-7" cx="167.54" cy="31.86" r=".24"/>
    <rect class="cls-7" x="187.24" y="27.61" width=".24" height="6.53" transform="translate(75.06 183.99) rotate(-63.1)"/>
    <rect class="cls-7" x="193.77" y="32.25" width=".24" height="5.96" transform="translate(74.75 192.2) rotate(-63.1)"/>
    <rect class="cls-7" x="196.6" y="36.47" width=".24" height="8.9" transform="translate(-1.92 10.69) rotate(-3.1)"/>
    <circle class="cls-7" cx="184.41" cy="29.38" r=".24"/>
    <circle class="cls-7" cx="166.21" cy="50.28" r=".24"/>
    <circle class="cls-7" cx="166.44" cy="54.41" r=".24"/>
    <circle class="cls-7" cx="166.28" cy="51.56" r=".24"/>
    <circle class="cls-7" cx="167.4" cy="50.79" r=".24"/>
    <circle class="cls-7" cx="170.8" cy="52.54" r=".24"/>
    <rect class="cls-7" x="166.04" y="62.63" width=".12" height="1.91" transform="translate(-3.19 9.07) rotate(-3.1)"/>
    <circle class="cls-7" cx="166.92" cy="61.17" r=".29"/>
    <circle class="cls-7" cx="181.49" cy="57.96" r=".29"/>
    <circle class="cls-7" cx="187.18" cy="56.29" r=".29"/>
    <circle class="cls-7" cx="187.02" cy="53.27" r=".29"/>
    <circle class="cls-7" cx="190.38" cy="49.85" r=".29"/>
    <circle class="cls-7" cx="191.91" cy="52.37" r=".29"/>
  </g>
  <path class="cls-3" d="M254.82,46.64c-.02,6.48-.37,13.91-1.47,21.82l-8.55,.68-1.48-19.57-15.52,3.97-1.8-7.05,16.77-4.29-.59-7.94c-4.6,1.69-8.22,2.68-9.79,3.08l-.87,.22-2.52-5.77,27.63-15.62,4.89,8.52c-2.48,1.62-5,3.07-7.45,4.33,.22,2.43,.47,5.89,.62,10.13l15.41-3.94,1.8,7.05-17.09,4.37Z"/>
  <path class="cls-6" d="M297.14,57.17c-3.86-9.58-6.1-18.11-7.34-24.66l-.03-.17-7.1,1.34-1.2-6.33,7.32-1.38c-.64-5.18-.57-8.16-.57-8.16l8.64-1.63,1.51,7.98,18.49-3.5c.17,2.08,.65,10.36-2.62,16.28l-7.72,.49-.13-8.24-6.82,1.29,4.79,25.31-7.21,1.36Z"/>
  <path class="cls-3" d="M341.79,6.66l4.83-6.3c1.48,.83,6.96,3.88,13.98,9.38l-6.83,8.17-11.98-11.25Zm-1.19,25.8c13.88-10.33,37.08-21.72,40.46-23.35l4.95,7.69-38.07,25.86-7.33-10.2Z"/>
  <path class="cls-3" d="M462.55,24.89c-.62,2.93-2.36,12.27-8.48,22.82l-7.92-2.22,4.42-19.45-18.17,1.76-.84-8.64,45.32-4.39,.84,8.64-15.16,1.47Zm-26.01-12.9l-.84-8.64,34.56-3.35,.84,8.64-34.56,3.35Z"/>
  <path class="cls-6" d="M486.28,71.57l2.72-20.2c-6.07,1.9-11.16,3.19-12.44,3.47l-2.39-5.75,32.08-15.46,4.11,8.97c-4.43,2.68-11.11,5.29-17.38,7.44l5.72,.77c-.02,1.01-.07,2.19-.52,5.52-.56,4.16-1.71,10.22-4.28,16.26l-7.6-1.02Z"/>
  <path class="cls-3" d="M521.41,67.03l1.57-7.11,17.17,3.79,5.31-24-13.07-2.89,1.57-7.11,37.18,8.22-1.57,7.11-12.36-2.73c-.16,1.23-.46,3.11-1.12,6.12-1.05,4.76-2.87,11.18-5.77,17.53l18.04,3.99-1.57,7.11-45.38-10.03Z"/>
  <path class="cls-6" d="M585.69,68.55c14.52-9.41,38.41-19.26,41.89-20.66l4.44,8-39.68,23.32-6.65-10.66Zm2.87-25.66l5.23-5.97c1.43,.93,6.69,4.33,13.34,10.27l-7.35,7.7-11.22-12Z"/>
  <path class="cls-3" d="M677.86,53.39l8.7,2.35,9.7,25.12-10.81,4.23s-4.06-10.84-6.74-17.74c-5.79,4.61-14.71,11.78-14.71,11.78l-7.21-9.09,21.06-16.64Z"/>
  <path class="cls-3" d="M749.98,98.24l5.25,7.33-8.38,25.59-11.04-3.57s3.72-10.96,6.01-18c-7.4-.1-18.85-.19-18.85-.19l.17-11.6,26.84,.44Z"/>
  <text class="cls-2" transform="translate(659.96 109.23) rotate(34.43)"><tspan x="0" y="0">OwO</tspan></text>
  <path class="cls-6" d="M27.32,182.59l7.89,1.67-5.68,22.8,22.5-6.41,1.92,8.11-27.84,6.88-5.02-4.89,6.23-28.16Z"/>
  <path class="cls-6" d="M715.2,233.84l-1.64-3.94,29.41-15.06,1.62,3.92-2.76,1.42,4.84,18.05-2.53,3.02-14.58-1.19,.72-4.28,11.92,1.29-4.38-14.82-22.62,11.6Z"/>
  <path class="cls-3" d="M373.52,204.16c-.13,.42-.51,.93-1.22,.93-.13,0-1.01-.08-2.11-.29-.59,5.15-5.24,8.7-11.02,8.7-4.94,0-9.04-2.74-9.04-7.09,0-2.03,.93-4.1,2.49-5.79-.04,0-.13,.04-.21,.04s-.21-.04-.34-.04l-6.67-.97c-.34-.13-.68-.51-.68-.97,0-.08,0-.21,.04-.3,.38-1.39,.84-4.52,1.31-7.94l-3.25,.17c-.46,0-.8-.34-.8-.8l-.13-6.5v-.08c0-.42,.38-.76,.76-.76l4.43-.21c.21-1.77,.34-3.17,.38-3.88,.08-.68,.46-1.1,1.31-1.1h.13l6.5,.3c.72,0,.97,.63,.97,1.1-.04,.93-.08,2.03-.17,3.21l2.07-.08c.42,0,.76,.34,.8,.8l.08,6.5v.08c0,.42-.34,.76-.76,.76l-3.08,.13c-.51,3.88-1.22,7.6-2.07,9.84l-.08,.17c2.49-2.36,5.53-2.91,8.82-3.29,.04-.89,.08-1.77,.08-2.58,.04-.84,.21-1.14,1.06-1.14h.17l6.54,.46c.97,.08,1.22,.38,1.22,1.1v.17c0,.59-.04,1.27-.08,1.98l2.58,.34c.76,.13,.89,.59,.89,.89,0,.17-.04,.3-.04,.3l-.89,5.87Zm-15.83,.93c0,.8,.8,1.48,1.77,1.48,1.77,0,2.03-1.65,2.24-3.21-3.08,0-4.01,.89-4.01,1.73Zm7.73-14.69c-.3,0-.59-.21-.72-.72l-1.35-6.16c-.04-.13-.04-.21-.04-.3,0-.93,5.91-3.63,9.25-3.63,.34,0,.68,.08,.89,.8l1.77,7.14c.04,.13,.04,.25,.04,.38,0,.46-.25,.72-.76,.8-1.9,.38-6.71,1.22-8.91,1.69h-.17Z"/>
  <path class="cls-7" d="M400.42,202.98c0,2.28-10.64,6.21-13.43,6.21-.63,0-1.22-.25-1.56-.8-3.29-5.32-4.73-10.01-4.73-13.98,0-9.92,8.53-13.98,16.59-13.98,11.61,0,18.75,7.47,18.75,16.93,0,5.28-2.45,10.39-6.92,14.95-.51,.51-.97,.72-1.44,.72-.29,0-.63-.13-.93-.25q-6.46-3.17-6.46-3.67c0-.25,.13-.51,.42-.76,3.46-3.17,5.53-7.26,5.53-10.89,0-3.25-2.28-8.57-9.04-8.57-4.64,0-8.11,2.53-8.11,6.29,0,.25,.3,3.67,1.6,3.67,.08,0,.21-.04,.3-.08,1.48-.76,4.56-2.62,5.7-3.21,.34-.17,.59-.25,.8-.25,.3,0,.51,.17,.59,.42,0,0,2.32,6.67,2.32,7.26Z"/>
  <path class="cls-3" d="M423.01,202.52c-.38-.13-.68-.46-.68-.89,0-.13,0-.21,.04-.34,1.48-3.8,2.79-7.85,3.93-11.61l-3.84-.38c-.42-.04-.76-.38-.76-.8v-.08l.67-6.88c.04-.42,.38-.76,.8-.76h.08l5.4,.51c.34-1.31,.59-2.53,.84-3.5,.13-.46,.3-.8,.93-.8h.13l7.43,.59c.59,.08,.76,.59,.76,1.05,0,.34-.51,2.62-.72,3.59l2.2,.21c.42,.04,.76,.38,.76,.8v.08l-.68,6.88c-.04,.42-.38,.76-.8,.76h-.08l-3.5-.34c-1.27,4.35-2.87,8.74-4.86,12.5-.21,.46-.51,.76-1.06,.76-.08,0-.17-.04-.3-.04l-6.71-1.31Zm29.26,10.05c-.04,.89-.76,.93-2.79,.93-7.56,0-14.31-3-14.31-4.31,0-.13,0-.25,.08-.42l2.45-5.87c.17-.38,.34-.59,.67-.59,.21,0,.42,.04,.76,.17,3,.97,7.73,1.94,12.41,2.07,.46,.04,.93,.21,.93,1.14l-.21,6.88Zm-8.32-19.8c-.25-.13-.42-.34-.42-.68,0-.13,.04-.3,.13-.46l2.66-5.62c.21-.38,.34-.55,.68-.55,1.27,0,7.73,2.32,9.12,3.08,.29,.17,.63,.34,.63,.76,0,.17-.08,.38-.17,.59l-2.79,6.59c-.17,.42-.46,.63-.8,.63-.13,0-.34-.04-.51-.13l-8.53-4.22Zm3.29-10.6h-.29c-.59,0-.89-.21-1.01-.63l-.89-3.25c-.04-.21-.08-.34-.08-.51,0-.51,.34-.68,.8-.76l3.08-.38h.13c.59,0,1.01,.51,1.14,1.01l.72,3.17c.04,.13,.04,.25,.04,.38,0,.46-.3,.72-1.01,.8l-2.62,.17Zm8.19,.34c-.21,.17-.42,.25-.59,.25-.3,0-.55-.17-.76-.38l-2.7-2.91c-.21-.21-.29-.42-.29-.59,0-.3,.29-.51,.46-.63l2.15-1.65c.21-.17,.42-.21,.63-.21,.34,0,.63,.17,.93,.38l2.45,2.24,.13,.08c.25,.21,.34,.42,.34,.63,0,.25-.17,.51-.42,.76l-2.32,2.03Z"/>
  <rect class="cls-1" x="182.09" y="153.83" width="2" height="35.25" transform="translate(-7.99 8.95) rotate(-2.74)"/>
  <rect class="cls-1" x="620.57" y="149.78" width="2" height="50.05" transform="translate(47.52 -120.79) rotate(11.54)"/>
  <rect class="cls-1" x="624.77" y="170.88" width="1" height="30.01" transform="translate(49.81 -121.31) rotate(11.54)"/>
  <rect class="cls-1" x="610.46" y="179.52" width="1" height="18.56" transform="translate(50.11 -118.39) rotate(11.54)"/>
  <rect class="cls-1" x="72.07" y="139.13" width="2" height="50.54" transform="translate(-7.78 3.68) rotate(-2.74)"/>
  <rect class="cls-1" x="66.93" y="42.01" width="2" height="30.11" transform="translate(-2.65 3.32) rotate(-2.74)"/>
  <rect class="cls-1" x="33.58" y="10.87" width="2" height="67.43" transform="translate(-8.3 81.26) rotate(-92.74)"/>
  <rect class="cls-1" x="176.68" y="173.64" width="1" height="15.76" transform="translate(-8.48 8.68) rotate(-2.74)"/>
  <rect class="cls-1" x="67.58" y="164.22" width="1" height="25.87" transform="translate(-8.4 3.46) rotate(-2.74)"/>
  <rect class="cls-1" x="9.07" y="43.85" width="1" height="16.74" transform="translate(-42.13 64.28) rotate(-92.74)"/>
  <rect class="cls-1" x="12.79" y="26.2" width="1" height="25.87" transform="translate(-25.16 54.28) rotate(-92.74)"/>
  <rect class="cls-1" x="79.35" y="174.21" width="1" height="15.31" transform="translate(-8.61 4.03) rotate(-2.74)"/>
  <rect class="cls-1" x="184.17" y="80" width="1" height="15.76" transform="translate(-3.99 8.93) rotate(-2.74)"/>
  <rect class="cls-1" x="177.68" y="80.33" width="2" height="35.1" transform="translate(-4.48 8.66) rotate(-2.74)"/>
  <rect class="cls-1" x="174" y="128.51" width="2" height="15.01" transform="translate(-6.31 8.53) rotate(-2.74)"/>
  <rect class="cls-1" x="185.83" y="125.68" width="2" height="15.01" transform="translate(-6.16 9.09) rotate(-2.74)"/>
  <rect class="cls-1" x="181.98" y="113.83" width="2" height="13.4" transform="translate(-36.12 118.12) rotate(-32.74)"/>
  <rect class="cls-1" x="177.79" y="142.01" width="2" height="13.4" transform="translate(-52.02 120.33) rotate(-32.74)"/>
  <circle class="cls-1" cx="174.67" cy="129.03" r="2.5"/>
  <circle class="cls-1" cx="626.37" cy="151.3" r="2.5"/>
  <circle class="cls-1" cx="71.87" cy="139.36" r="2.5"/>
  <circle class="cls-1" cx="68.64" cy="71.91" r="2.5"/>
  <circle class="cls-1" cx="187.17" cy="140.26" r="2.5"/>
  <polygon class="cls-6" points="113.98 92.9 116.88 76.68 128.97 87.87 145.19 90.77 134 102.86 131.1 119.08 119.01 107.89 102.79 104.99 113.98 92.9"/>
  <polygon class="cls-6" points="339.52 59.35 339.74 52.05 345.77 56.17 353.07 56.39 348.95 62.41 348.73 69.71 342.7 65.59 335.4 65.38 339.52 59.35"/>
  <polygon class="cls-6" points="213.3 68.05 217.21 61.88 220.29 68.5 226.46 72.41 219.84 75.5 215.93 81.66 212.84 75.04 206.68 71.13 213.3 68.05"/>
  <polygon class="cls-6" points="332.61 157.75 337.25 152.11 339.5 159.06 345.14 163.69 338.19 165.94 333.56 171.58 331.31 164.64 325.66 160 332.61 157.75"/>
  <polygon class="cls-6" points="213.3 189.71 215.89 182.88 220.25 188.74 227.07 191.33 221.21 195.68 218.62 202.51 214.27 196.65 207.44 194.06 213.3 189.71"/>
  <polygon class="cls-6" points="457.65 78.86 464.4 76.07 463.1 83.25 465.89 90 458.7 88.71 451.96 91.5 453.25 84.31 450.46 77.56 457.65 78.86"/>
  <polygon class="cls-7" points="442 156.86 444.96 150.18 448.98 156.27 455.66 159.23 449.57 163.25 446.61 169.93 442.58 163.84 435.91 160.88 442 156.86"/>
  <polygon class="cls-6" points="646.33 38.22 651.69 33.26 652.98 40.44 657.95 45.8 650.76 47.09 645.41 52.06 644.11 44.87 639.15 39.52 646.33 38.22"/>
  <g>
    <polygon class="cls-4" points="573.27 168.7 576.48 161.79 579.42 168.82 587.02 168.14 582.39 174.21 586.78 180.44 579.22 179.47 576.01 186.39 573.07 179.36 565.47 180.04 570.09 173.97 565.71 167.73 573.27 168.7"/>
    <polygon class="cls-5" points="570.42 177.3 563.5 174.09 570.54 171.15 569.86 163.56 575.92 168.18 582.16 163.79 581.19 171.36 588.11 174.57 581.07 177.51 581.75 185.1 575.69 180.48 569.45 184.87 570.42 177.3"/>
  </g>
  <path class="cls-6" d="M408.53,20.87c-.31,1.19-1.53,1.91-2.73,1.6-1.2-.31-1.91-1.53-1.6-2.73h0c.31-1.19,1.53-1.91,2.73-1.6,1.2,.31,1.91,1.53,1.6,2.73h0Zm5.25-9.68c-1.3-.34-3.25,.15-5.39,1.31-1.31-2.05-2.77-3.41-4.08-3.75-.4-.1-.78-.11-1.14,0-1.53,.42-2.45,2.74-2.54,5.92-3.18,.14-5.48,1.1-5.87,2.63s1.15,3.5,3.87,5.17c-1.46,2.84-1.78,5.31-.65,6.42,.26,.26,.6,.44,1,.54,1.3,.34,3.25-.15,5.39-1.31,1.31,2.05,2.77,3.41,4.08,3.75,.4,.1,.78,.11,1.14,.01,1.53-.42,2.45-2.74,2.54-5.92,3.17-.14,5.46-1.1,5.86-2.63s-1.15-3.5-3.87-5.17c1.46-2.83,1.78-5.31,.65-6.42-.26-.26-.6-.44-.99-.54h0Zm-.28,1.05h0c.22,.06,.38,.15,.51,.27,.55,.54,.46,2.02-.22,3.77-.17,.43-.37,.88-.6,1.33-.87-.47-1.84-.91-2.87-1.3-.41-1.04-.87-2.01-1.35-2.88,1.91-1.03,3.56-1.44,4.55-1.19h0Zm-9.46-2.44c.98,.25,2.23,1.41,3.4,3.24-.84,.52-1.71,1.14-2.57,1.86-1.1-.17-2.16-.25-3.15-.26,.01-.5,.05-.98,.11-1.44,.25-1.87,.89-3.2,1.62-3.41,.21-.04,.42-.02,.58,.01h0Zm3.96,4.18c.32,.57,.63,1.19,.92,1.86-.42-.13-.85-.26-1.29-.37s-.89-.22-1.32-.31c.57-.44,1.14-.84,1.7-1.18h0Zm-.65,2.55c.72,.19,1.42,.4,2.11,.64,.25,.67,.47,1.37,.68,2.1,.2,.71,.36,1.43,.5,2.14-.46,.56-.95,1.11-1.47,1.63-.53,.54-1.07,1.05-1.61,1.51-.72-.12-1.44-.27-2.16-.46s-1.42-.41-2.11-.64c-.25-.67-.47-1.37-.68-2.1-.2-.71-.36-1.43-.5-2.14,.46-.56,.96-1.11,1.47-1.64,.53-.54,1.07-1.05,1.61-1.51,.72,.12,1.44,.27,2.16,.46h0Zm-3.58-.67c-.33,.3-.66,.62-.97,.95-.32,.32-.62,.65-.91,.98-.09-.7-.14-1.39-.16-2.05,.66,.02,1.34,.06,2.05,.13h0Zm7.03,1.82c.65,.27,1.26,.57,1.84,.88-.33,.57-.71,1.14-1.12,1.71-.1-.43-.2-.86-.32-1.3-.12-.44-.26-.87-.39-1.29h0Zm2.79,1.42c.43,.27,.83,.54,1.21,.83,1.49,1.15,2.33,2.37,2.14,3.11-.2,.74-1.53,1.4-3.39,1.68-.45,.07-.94,.11-1.44,.14-.03-1-.13-2.06-.32-3.16,.69-.87,1.29-1.74,1.8-2.6h0Zm-12.97-3.36c.03,1,.13,2.06,.32,3.16-.69,.87-1.29,1.74-1.8,2.6-.43-.27-.83-.55-1.2-.83-1.49-1.15-2.33-2.37-2.14-3.11s1.52-1.4,3.38-1.68c.45-.07,.94-.11,1.44-.14Zm10.23,7.08c.09,.7,.14,1.39,.16,2.06-.66,0-1.35-.05-2.05-.13,.33-.3,.66-.62,.97-.94,.32-.32,.62-.65,.91-.98h0Zm-9.63-2.48c.1,.43,.2,.86,.32,1.3,.12,.44,.26,.86,.4,1.28-.65-.27-1.26-.57-1.84-.88,.33-.56,.72-1.14,1.12-1.71h0Zm9.79,5.63c-.02,.51-.05,.99-.11,1.44-.25,1.87-.89,3.2-1.62,3.41-.16,.05-.36,.04-.58-.02-.98-.25-2.23-1.41-3.4-3.24,.84-.52,1.71-1.14,2.57-1.85,1.1,.16,2.16,.25,3.15,.26h0Zm-11.45-2.96c.87,.47,1.84,.91,2.87,1.3,.41,1.04,.87,2.01,1.35,2.88-1.92,1.03-3.57,1.44-4.55,1.19-.21-.06-.38-.15-.5-.27-.55-.54-.46-2.02,.22-3.77,.17-.43,.37-.88,.6-1.33h0Zm4.25,1.77c.42,.13,.85,.26,1.29,.37s.89,.22,1.32,.31c-.57,.44-1.14,.83-1.7,1.18-.32-.57-.63-1.19-.92-1.86Z"/>
</svg>