<?xml version="1.0" encoding="utf-8"?>
<!-- Generator: Adobe Illustrator 27.0.1, SVG Export Plug-In . SVG Version: 6.00 Build 0)  -->
<svg version="1.1" id="Layer_1" xmlns="http://www.w3.org/2000/svg" xmlns:xlink="http://www.w3.org/1999/xlink" x="0px" y="0px"
	 viewBox="0 0 800.25 924.05" style="enable-background:new 0 0 800.25 924.05;" xml:space="preserve">
<style type="text/css">
	.st0{display:none;stroke:#000000;stroke-width:0.25;stroke-miterlimit:10;}
	.st1{stroke:#000000;stroke-width:0.25;stroke-miterlimit:10;}
</style>
<circle class="st0" cx="400.12" cy="462.02" r="500"/>
<g>
	<polygon class="st1" points="202.5,331.76 230.87,315.38 230.87,239.12 202.5,255.49 	"/>
	<polygon class="st1" points="334.07,38.33 367.07,57.36 367.07,866.68 334.07,885.71 400.12,923.9 555.49,834.21 555.49,796.07 
		522.44,776.98 433.18,828.5 433.18,495.08 531.33,495.08 555.49,481.11 555.49,442.93 531.33,428.97 433.18,428.97 433.18,95.54 
		522.44,147.06 555.49,127.97 555.49,89.84 400.12,0.14 	"/>
	<polygon class="st1" points="775.91,495.08 800.12,481.11 800.12,231.11 644.81,141.41 611.76,160.5 611.76,269.24 644.76,288.28 
		677.81,269.24 677.81,236.76 734.07,269.24 734.07,428.97 636.02,428.97 611.76,442.98 611.76,763.55 644.81,782.63 800.12,692.94 
		800.12,584.2 767.12,565.11 734.07,584.19 734.07,654.81 677.81,687.28 677.81,495.08 	"/>
	<polygon class="st1" points="0.12,269.24 33.18,288.28 122.44,236.76 122.44,301.7 122.33,301.76 122.33,373.8 122.44,377.94 
		122.44,763.54 188.5,801.73 188.5,339.89 188.52,339.87 188.52,267.81 188.5,263.7 188.5,198.63 310.81,128.02 310.81,51.71 
		0.12,231.11 	"/>
	<polygon class="st1" points="244.85,231.06 244.76,834.21 310.81,872.34 310.81,231.11 277.76,212.02 	"/>
	<polygon class="st1" points="0.12,692.94 33.18,712.03 66.18,692.99 66.18,410.46 108.36,386.12 108.36,309.85 0.12,372.32 	"/>
</g>
</svg>
