<?xml version="1.0" encoding="UTF-8"?>
<svg id="Layer_1" data-name="Layer 1" xmlns="http://www.w3.org/2000/svg" viewBox="0 0 798.98 817.59">
  <defs>
    <style>
      .cls-1 {
        fill: #fff;
      }

      .cls-2 {
        fill: #231f20;
      }
    </style>
  </defs>
  <g>
    <polygon class="cls-2" points="797.94 586.08 797.94 586.12 753.79 611.8 709.46 586.43 665.1 561.06 620.77 535.68 620.95 586.78 621.17 637.88 621.34 688.97 577.19 714.7 532.82 689.32 488.5 663.95 444.13 638.58 444.31 689.68 444.53 740.77 444.7 791.87 400.6 817.59 356.23 792.22 356.05 741.08 355.83 690.03 355.61 638.93 355.44 587.83 311.07 562.46 266.74 537.05 266.92 588.14 267.14 639.28 267.31 690.34 223.16 716.06 178.8 690.69 178.62 639.59 178.4 588.49 178.22 537.4 178 486.3 177.83 435.2 177.61 384.11 177.43 333.01 177.21 281.91 221.58 307.29 265.73 281.56 265.95 332.66 266.13 383.75 266.35 434.85 310.67 460.22 355.04 485.64 354.82 434.5 354.64 383.4 354.42 332.31 354.25 281.21 353.81 179.02 353.63 127.92 309.48 153.64 265.33 179.32 221.14 205.09 177.04 230.82 132.84 256.54 88.69 282.26 88.91 333.36 89.09 384.46 44.94 410.18 .62 384.81 .4 333.67 .22 282.62 0 231.52 44.15 205.75 88.3 180.07 132.45 154.35 176.64 128.62 220.79 102.9 264.94 77.17 309.09 51.45 353.24 25.72 397.39 0 441.76 25.37 486.08 50.75 530.45 76.12 574.77 101.49 619.19 126.91 663.51 152.24 707.84 177.65 752.21 202.98 796.58 228.4 796.75 279.49 796.97 330.59 797.15 381.69 753 407.41 708.67 382.04 708.45 330.94 708.28 279.85 663.86 254.43 619.58 229.1 575.17 203.68 530.85 178.31 486.48 152.94 442.15 127.57 442.33 178.66 442.55 229.76 442.72 280.86 442.94 331.95 443.12 383.05 443.34 434.15 443.51 485.29 443.73 536.39 488.1 561.76 532.43 587.13 532.25 536.03 532.03 484.94 531.86 433.84 576.01 408.12 620.37 433.49 664.7 458.86 709.07 484.23 753.39 509.61 797.76 534.98 797.94 586.08"/>
    <polygon class="cls-1" points="181.47 289.41 181.47 324.57 211.92 306.99 181.47 289.41"/>
    <polygon class="cls-1" points="261.18 289.41 230.73 306.99 261.18 324.57 261.18 289.41"/>
  </g>
  <rect class="cls-1" x="398.97" y="564.6" width="4.09" height="252.99"/>
  <rect class="cls-1" x="575.14" y="666.43" width="4.09" height="48.77"/>
  <rect class="cls-1" x="573.1" y="534.71" width="4.09" height="52.22"/>
  <rect class="cls-1" x="560.82" y="690.06" width="2.05" height="16.4"/>
  <rect class="cls-1" x="766.99" y="571.51" width="2.05" height="32.69" transform="translate(-125.09 959.05) rotate(-60)"/>
  <rect class="cls-1" x="555.24" y="419.1" width="2.05" height="21.28" transform="translate(-94.04 696.61) rotate(-60)"/>
  <polygon class="cls-1" points="579.27 666.33 577.22 669.87 549.06 653.61 475 610.86 477.04 607.31 579.27 666.33"/>
  <polygon class="cls-1" points="798.98 584.32 796.94 587.86 773.32 574.22 711.22 538.37 713.27 534.83 798.98 584.32"/>
  <polygon class="cls-1" points="571.66 454.58 569.62 458.13 558.92 451.95 530.77 435.7 532.81 432.15 571.66 454.58"/>
  <polygon class="cls-1" points="661.98 520.89 659.93 524.43 638.17 511.86 580.93 478.82 582.98 475.27 661.98 520.89"/>
  <polygon class="cls-1" points="701.97 514.13 699.92 517.67 682.08 507.37 635.15 480.27 637.19 476.73 701.97 514.13"/>
  <polygon class="cls-1" points="714.81 536.37 711.27 538.42 707.73 532.29 698.42 516.17 701.97 514.13 714.81 536.37"/>
  <polygon class="cls-1" points="584.5 476.8 580.95 478.84 577.42 472.71 568.11 456.6 571.65 454.55 584.5 476.8"/>
  <rect class="cls-1" x="415.33" y="759.9" width="2.05" height="49.1"/>
  <rect class="cls-1" x="220.28" y="485.2" width="2.05" height="49.1"/>
  <rect class="cls-1" x="268.37" y="457.07" width="2.05" height="65.44" transform="translate(-289.47 478.2) rotate(-60)"/>
  <rect class="cls-1" x="357.49" y="492.74" width="4.09" height="98.19" transform="translate(-289.47 582.28) rotate(-60)"/>
  <rect class="cls-1" x="221.3" y="601.55" width="4.09" height="114.52"/>
  <rect class="cls-1" x="219.26" y="386.02" width="4.09" height="77.28"/>
  <rect class="cls-1" x="394.37" y="363.08" width="4.09" height="122.89"/>
  <rect class="cls-1" x="199.88" y="580.13" width="4.09" height="46.93" transform="translate(805.51 401.67) rotate(90)"/>
  <rect class="cls-1" x="207.95" y="518.56" width="4.09" height="71.22" transform="translate(764.16 344.17) rotate(90)"/>
  <rect class="cls-1" x="240.9" y="364.6" width="4.09" height="46.93" transform="translate(631.01 145.12) rotate(90)"/>
  <rect class="cls-1" x="374.13" y="342.84" width="4.09" height="44.58" transform="translate(741.3 -11.04) rotate(90)"/>
  <rect class="cls-1" x="362.47" y="372.48" width="2.05" height="17.99" transform="translate(749.23 22.52) rotate(90.68)"/>
  <rect class="cls-1" x="255.16" y="394.2" width="2.05" height="20.45" transform="translate(660.61 148.24) rotate(90)"/>
  <rect class="cls-1" x="69.58" y="237.64" width="2.05" height="32.7" transform="translate(-114.06 442.13) rotate(-120)"/>
  <rect class="cls-1" x="104.81" y="186.48" width="2.05" height="32.7" transform="translate(-16.91 395.9) rotate(-120)"/>
  <rect class="cls-1" x="309.65" y="103.73" width="2.05" height="32.7" transform="translate(362.01 449.17) rotate(-120)"/>
  <rect class="cls-1" x="672.63" y="214.6" width="2.05" height="32.7" transform="translate(136.81 698.88) rotate(-60)"/>
  <rect class="cls-1" x="700.95" y="533.38" width="2.05" height="32.7" transform="translate(-125.09 882.79) rotate(-60)"/>
  <rect class="cls-1" x="505.8" y="78.39" width="2.05" height="32.7" transform="translate(171.37 486.29) rotate(-60)"/>
  <rect class="cls-1" x="768.29" y="366.3" width="2.05" height="32.7" transform="translate(1538.62 765.3) rotate(180)"/>
  <rect class="cls-1" x="735.56" y="382.36" width="2.05" height="16.35" transform="translate(1473.17 781.06) rotate(180)"/>
  <rect class="cls-1" x="60.2" y="385.01" width="2.05" height="16.35" transform="translate(122.45 786.36) rotate(180)"/>
  <rect class="cls-1" x="27.48" y="368.62" width="2.05" height="32.74" transform="translate(57.01 769.97) rotate(180)"/>
  <rect class="cls-1" x="384.65" y="711.53" width="2.05" height="98.19"/>
  <circle class="cls-1" cx="316.94" cy="517.24" r="4.09"/>
  <circle class="cls-1" cx="245.6" cy="554.17" r="4.09"/>
  <circle class="cls-1" cx="396.42" cy="485.97" r="4.09"/>
  <rect class="cls-1" x="394.37" y="164.88" width="4.09" height="122.89" transform="translate(792.83 452.65) rotate(-180)"/>
  <rect class="cls-1" x="395.21" y="0" width="4.09" height="54.3" transform="translate(794.5 54.3) rotate(-180)"/>
  <rect class="cls-1" x="453.26" y="18.6" width="4.09" height="135.82" transform="translate(757.87 -264.53) rotate(120)"/>
  <rect class="cls-1" x="337.36" y="18.51" width="4.09" height="135.82" transform="translate(244.55 -250.72) rotate(60)"/>
  <rect class="cls-1" x="212.13" y="99.33" width="4.09" height="81.9" transform="translate(228.57 -115.34) rotate(60)"/>
  <rect class="cls-1" x="209.87" y="121.04" width="4.09" height="112.1" transform="translate(259.33 -94.98) rotate(60)"/>
  <rect class="cls-1" x="86.2" y="179.04" width="4.09" height="102.26" transform="translate(243.46 38.66) rotate(60)"/>
  <rect class="cls-1" x="42.82" y="253.99" width="4.09" height="156.32"/>
  <rect class="cls-1" x="562.37" y="126.93" width="4.09" height="81.9" transform="translate(992.02 -236.97) rotate(120)"/>
  <rect class="cls-1" x="263.02" y="103.58" width="4.09" height="32.99" transform="translate(144.99 385.14) rotate(-90)"/>
  <rect class="cls-1" x="145.88" y="188.39" width="4.09" height="32.99" transform="translate(-56.96 352.8) rotate(-90)"/>
  <rect class="cls-1" x="519.45" y="117.42" width="4.09" height="32.99" transform="translate(1040.08 -10.86) rotate(150)"/>
  <rect class="cls-1" x="655.78" y="175.23" width="4.09" height="32.99" transform="translate(1323.38 28.85) rotate(150)"/>
  <rect class="cls-1" x="416.33" y="142.92" width="4.09" height="48.02" transform="translate(585.3 -251.45) rotate(90)"/>
  <rect class="cls-1" x="430.33" y="172.26" width="2.05" height="22.05" transform="translate(614.64 -248.07) rotate(90)"/>
  <rect class="cls-1" x="379.87" y="9.01" width="2.05" height="22.05"/>
  <rect class="cls-1" x="412.59" y="8.62" width="2.05" height="22.05"/>
  <circle class="cls-1" cx="396.42" cy="287.77" r="4.09"/>
  <circle class="cls-1" cx="600.95" cy="188.98" r="4.09"/>
  <circle class="cls-1" cx="752.95" cy="376.37" r="4.09"/>
  <circle class="cls-1" cx="178.65" cy="160.79" r="4.09"/>
  <circle class="cls-1" cx="44.86" cy="323.97" r="4.09"/>
  <circle class="cls-1" cx="261.06" cy="148.72" r="4.09"/>
  <rect class="cls-1" x="599.76" y="94.11" width="4.09" height="112.1" transform="translate(170.85 596.26) rotate(-60)"/>
  <rect class="cls-1" x="707.69" y="179.78" width="4.09" height="102.35" transform="translate(154.85 730.13) rotate(-60)"/>
  <rect class="cls-1" x="750.9" y="254.69" width="4.09" height="152.77"/>
  <circle class="cls-1" cx="552.66" cy="121.79" r="4.09"/>
  <circle class="cls-1" cx="221.3" cy="463.3" r="4.09"/>
  <circle class="cls-1" cx="221.3" cy="534.31" r="4.09"/>
  <circle class="cls-1" cx="221.3" cy="485.2" r="4.09"/>
  <circle class="cls-1" cx="241.22" cy="473.16" r="4.09"/>
  <circle class="cls-1" cx="297.9" cy="506.24" r="4.09"/>
  <rect class="cls-1" x="205.96" y="674.78" width="2.05" height="32.73"/>
  <circle class="cls-1" cx="223.35" cy="650.58" r="4.91"/>
  <circle class="cls-1" cx="476.01" cy="609.08" r="4.91"/>
  <circle class="cls-1" cx="575.14" cy="585.73" r="4.91"/>
  <circle class="cls-1" cx="575.14" cy="533.77" r="4.91"/>
  <circle class="cls-1" cx="636.02" cy="478.41" r="4.91"/>
  <circle class="cls-1" cx="659.92" cy="523.02" r="4.91"/>
</svg>